# Blender 3.1.0
# www.blender.org
mtllib MonObjet.mtl
o Cube
v 0.422123 0.422123 -1.000000
v 0.422123 1.000000 -0.422123
v 1.000000 0.422123 -0.422123
v 0.422123 -1.000000 -0.422123
v 0.422123 -0.422123 -1.000000
v 1.000000 -0.422123 -0.422123
v 1.000000 0.422123 0.422123
v 0.422123 1.000000 0.422123
v 0.422123 0.422123 1.000000
v 1.000000 -0.422123 0.422123
v 0.422123 -0.422123 1.000000
v 0.422123 -1.000000 0.422123
v -0.422123 0.422123 -1.000000
v -1.000000 0.422123 -0.422123
v -0.422123 1.000000 -0.422123
v -1.000000 -0.422123 -0.422123
v -0.422123 -0.422123 -1.000000
v -0.422123 -1.000000 -0.422123
v -1.000000 0.422123 0.422123
v -0.422123 0.422123 1.000000
v -0.422123 1.000000 0.422123
v -0.422123 -1.000000 0.422123
v -0.422123 -0.422123 1.000000
v -1.000000 -0.422123 0.422123
vn -0.0000 -1.0000 -0.0000
vn -1.0000 -0.0000 -0.0000
vn -0.0000 -0.0000 1.0000
vn -0.0000 1.0000 -0.0000
vn 1.0000 -0.0000 -0.0000
vn 0.5774 0.5774 -0.5774
vn 0.5774 -0.5774 -0.5774
vn 0.5774 0.5774 0.5774
vn 0.5774 -0.5774 0.5774
vn -0.5774 0.5774 -0.5774
vn -0.5774 -0.5774 -0.5774
vn -0.5774 0.5774 0.5774
vn -0.5774 -0.5774 0.5774
vn -0.7071 -0.7071 -0.0000
vn -0.0000 -0.7071 -0.7071
vn 0.7071 -0.0000 -0.7071
vn -0.7071 -0.0000 0.7071
vn 0.7071 -0.0000 0.7071
vn -0.7071 -0.0000 -0.7071
vn -0.0000 0.7071 0.7071
vn 0.7071 0.7071 -0.0000
vn -0.0000 -0.7071 0.7071
vn -0.7071 0.7071 -0.0000
vn -0.0000 0.7071 -0.7071
vn 0.7071 -0.7071 -0.0000
vn -0.0000 -0.0000 -1.0000
vt 0.552765 0.427765
vt 0.697235 0.572235
vt 0.625000 0.427765
vt 0.552765 0.500000
vt 0.552765 0.572235
vt 0.302765 0.572235
vt 0.302765 0.500000
vt 0.447235 0.427765
vt 0.375000 0.572235
vt 0.447235 0.572235
vt 0.552765 0.677765
vt 0.625000 0.677765
vt 0.625000 0.822235
vt 0.697235 0.677765
vt 0.552765 0.750000
vt 0.552765 0.822235
vt 0.447235 0.750000
vt 0.447235 0.677765
vt 0.375000 0.822235
vt 0.447235 0.822235
vt 0.302765 0.750000
vt 0.375000 0.822235
vt 0.302765 0.677765
vt 0.552765 0.250000
vt 0.552765 0.322235
vt 0.552765 0.250000
vt 0.552765 0.177765
vt 0.802765 0.572235
vt 0.625000 0.177765
vt 0.625000 0.322235
vt 0.125000 0.572235
vt 0.447235 0.177765
vt 0.447235 0.250000
vt 0.197235 0.500000
vt 0.447235 0.322235
vt 0.375000 0.177765
vt 0.197235 0.572235
vt 0.552765 0.072235
vt 0.552765 0.000000
vt 0.552765 0.927765
vt 0.802765 0.677765
vt 0.625000 0.927765
vt 0.625000 0.072235
vt 0.197235 0.677765
vt 0.447235 0.927765
vt 0.447235 0.000000
vt 0.197235 0.750000
vt 0.125000 0.677765
vt 0.447235 0.072235
s 0
usemtl Material
f 18/37/1 4/6/1 12/23/1 22/44/1
f 24/49/2 19/38/2 14/27/2 16/32/2
f 11/20/3 9/16/3 20/40/3 23/45/3
f 2/2/4 15/28/4 21/41/4 8/14/4
f 6/10/5 3/5/5 7/11/5 10/18/5
f 1/1/6 2/3/6 3/4/6
f 4/6/7 5/7/7 6/9/7
f 7/11/8 8/12/8 9/15/8
f 10/17/9 11/19/9 12/22/9
f 13/24/10 14/26/10 15/29/10
f 16/32/11 17/33/11 18/36/11
f 19/38/12 20/39/12 21/43/12
f 22/44/13 23/47/13 24/48/13
f 18/37/14 22/44/14 24/48/14 16/31/14
f 4/6/15 18/37/15 17/34/15 5/7/15
f 3/5/16 6/10/16 5/8/16 1/1/16
f 23/46/17 20/39/17 19/38/17 24/49/17
f 9/16/18 11/20/18 10/18/18 7/11/18
f 13/25/19 17/35/19 16/32/19 14/27/19
f 8/13/20 21/42/20 20/40/20 9/16/20
f 2/2/21 8/14/21 7/11/21 3/5/21
f 22/44/22 12/23/22 11/21/22 23/47/22
f 21/43/23 15/29/23 14/27/23 19/38/23
f 15/30/24 2/3/24 1/1/24 13/25/24
f 12/23/25 4/6/25 6/10/25 10/18/25
f 17/35/26 13/25/26 1/1/26 5/8/26
