# Blender 3.1.0
# www.blender.org
mtllib paneauPUB.mtl
o Cube.010
v -0.985873 -1.018724 0.200000
v -1.013933 0.990799 0.200000
v -0.985873 -1.018724 -0.200000
v -1.013933 0.990799 -0.200000
v 1.013933 -0.990799 0.200000
v 0.985873 1.018724 0.200000
v 1.013933 -0.990799 -0.200000
v 0.985873 1.018724 -0.200000
vn -0.9999 -0.0140 -0.0000
vn -0.0000 -0.0000 -1.0000
vn 0.9999 0.0140 -0.0000
vn -0.0000 -0.0000 1.0000
vn 0.0349 -2.4998 -0.0000
vn -0.0349 2.4998 -0.0000
vt 0.375000 0.000000
vt 0.375000 1.000000
vt 0.125000 0.750000
vt 0.625000 0.000000
vt 0.625000 1.000000
vt 0.875000 0.750000
vt 0.375000 0.250000
vt 0.125000 0.500000
vt 0.625000 0.250000
vt 0.875000 0.500000
vt 0.375000 0.750000
vt 0.625000 0.750000
vt 0.375000 0.500000
vt 0.625000 0.500000
s 0
usemtl Metal
f 1/1/1 2/4/1 4/9/1 3/7/1
f 3/7/2 4/9/2 8/14/2 7/13/2
f 7/13/3 8/14/3 6/12/3 5/11/3
usemtl Advert
f 5/11/4 6/12/4 2/5/4 1/2/4
usemtl Metal
f 3/8/5 7/13/5 5/11/5 1/3/5
f 8/14/6 4/10/6 2/6/6 6/12/6
